<svg width="240" height="114" viewBox="0 0 240 114" fill="none" xmlns="http://www.w3.org/2000/svg">
<g filter="url(#filter0_d_3_315)">
<rect x="10" y="29.5" width="199" height="64" fill="#EDD098"/>
<rect x="10" y="30.5" width="49" height="20" fill="url(#paint0_linear_3_315)"/>
<rect x="10" y="51.5" width="49" height="20" fill="url(#paint1_linear_3_315)"/>
<rect x="10" y="72.5" width="49" height="20" fill="url(#paint2_linear_3_315)"/>
<rect x="110" y="30.5" width="49" height="20" fill="url(#paint3_linear_3_315)"/>
<rect x="110" y="51.5" width="49" height="20" fill="url(#paint4_linear_3_315)"/>
<rect x="110" y="72.5" width="49" height="20" fill="url(#paint5_linear_3_315)"/>
<rect x="60" y="30.5" width="49" height="20" fill="url(#paint6_linear_3_315)"/>
<rect x="60" y="51.5" width="49" height="20" fill="url(#paint7_linear_3_315)"/>
<rect x="60" y="72.5" width="49" height="20" fill="url(#paint8_linear_3_315)"/>
<rect x="160" y="30.5" width="49" height="20" fill="url(#paint9_linear_3_315)"/>
<rect x="160" y="51.5" width="49" height="20" fill="url(#paint10_linear_3_315)"/>
<rect x="160" y="72.5" width="49" height="20" fill="url(#paint11_linear_3_315)"/>
<rect x="10" y="93.5" width="199" height="6" fill="#E9E9E9"/>
<path d="M209 23.5L225.5 10V86L209 99.5V23.5Z" fill="#CACACA"/>
<rect x="10" y="23.5" width="199" height="6" fill="#E9E9E9"/>
<path d="M31.5 10H225.5L209 23.4999H10L31.5 10Z" fill="#F5F5F5"/>
<rect x="12.5" y="95" width="194" height="3" fill="#E9E9E9" stroke="#D2D2D2"/>
<rect x="12.5" y="25" width="194" height="3" fill="#E9E9E9" stroke="#D2D2D2"/>
</g>
<defs>
<filter id="filter0_d_3_315" x="0" y="0" width="239.5" height="113.5" filterUnits="userSpaceOnUse" color-interpolation-filters="sRGB">
<feFlood flood-opacity="0" result="BackgroundImageFix"/>
<feColorMatrix in="SourceAlpha" type="matrix" values="0 0 0 0 0 0 0 0 0 0 0 0 0 0 0 0 0 0 127 0" result="hardAlpha"/>
<feOffset dx="2" dy="2"/>
<feGaussianBlur stdDeviation="6"/>
<feComposite in2="hardAlpha" operator="out"/>
<feColorMatrix type="matrix" values="0 0 0 0 0 0 0 0 0 0 0 0 0 0 0 0 0 0 0.05 0"/>
<feBlend mode="normal" in2="BackgroundImageFix" result="effect1_dropShadow_3_315"/>
<feBlend mode="normal" in="SourceGraphic" in2="effect1_dropShadow_3_315" result="shape"/>
</filter>
<linearGradient id="paint0_linear_3_315" x1="34.5" y1="30.5" x2="34.5" y2="33.5" gradientUnits="userSpaceOnUse">
<stop stop-color="#FFFAF1"/>
<stop offset="1" stop-color="#FFE5B8"/>
</linearGradient>
<linearGradient id="paint1_linear_3_315" x1="34.5" y1="51.5" x2="34.5" y2="54.5" gradientUnits="userSpaceOnUse">
<stop stop-color="#FFFAF1"/>
<stop offset="1" stop-color="#FFE5B8"/>
</linearGradient>
<linearGradient id="paint2_linear_3_315" x1="34.5" y1="72.5" x2="34.5" y2="75.5" gradientUnits="userSpaceOnUse">
<stop stop-color="#FFFAF1"/>
<stop offset="1" stop-color="#FFE5B8"/>
</linearGradient>
<linearGradient id="paint3_linear_3_315" x1="134.5" y1="30.5" x2="134.5" y2="33.5" gradientUnits="userSpaceOnUse">
<stop stop-color="#FFFAF1"/>
<stop offset="1" stop-color="#FFE5B8"/>
</linearGradient>
<linearGradient id="paint4_linear_3_315" x1="134.5" y1="51.5" x2="134.5" y2="54.5" gradientUnits="userSpaceOnUse">
<stop stop-color="#FFFAF1"/>
<stop offset="1" stop-color="#FFE5B8"/>
</linearGradient>
<linearGradient id="paint5_linear_3_315" x1="134.5" y1="72.5" x2="134.5" y2="75.5" gradientUnits="userSpaceOnUse">
<stop stop-color="#FFFAF1"/>
<stop offset="1" stop-color="#FFE5B8"/>
</linearGradient>
<linearGradient id="paint6_linear_3_315" x1="84.5" y1="30.5" x2="84.5" y2="33.5" gradientUnits="userSpaceOnUse">
<stop stop-color="#FFFAF1"/>
<stop offset="1" stop-color="#FFE5B8"/>
</linearGradient>
<linearGradient id="paint7_linear_3_315" x1="84.5" y1="51.5" x2="84.5" y2="54.5" gradientUnits="userSpaceOnUse">
<stop stop-color="#FFFAF1"/>
<stop offset="1" stop-color="#FFE5B8"/>
</linearGradient>
<linearGradient id="paint8_linear_3_315" x1="84.5" y1="72.5" x2="84.5" y2="75.5" gradientUnits="userSpaceOnUse">
<stop stop-color="#FFFAF1"/>
<stop offset="1" stop-color="#FFE5B8"/>
</linearGradient>
<linearGradient id="paint9_linear_3_315" x1="184.5" y1="30.5" x2="184.5" y2="33.5" gradientUnits="userSpaceOnUse">
<stop stop-color="#FFFAF1"/>
<stop offset="1" stop-color="#FFE5B8"/>
</linearGradient>
<linearGradient id="paint10_linear_3_315" x1="184.5" y1="51.5" x2="184.5" y2="54.5" gradientUnits="userSpaceOnUse">
<stop stop-color="#FFFAF1"/>
<stop offset="1" stop-color="#FFE5B8"/>
</linearGradient>
<linearGradient id="paint11_linear_3_315" x1="184.5" y1="72.5" x2="184.5" y2="75.5" gradientUnits="userSpaceOnUse">
<stop stop-color="#FFFAF1"/>
<stop offset="1" stop-color="#FFE5B8"/>
</linearGradient>
</defs>
</svg>
