<svg width="126" height="116" viewBox="0 0 126 116" fill="none" xmlns="http://www.w3.org/2000/svg">
<g filter="url(#filter0_d_3_359)">
<rect x="45" y="16.8875" width="49" height="64" transform="rotate(30 45 16.8875)" fill="#EDD098"/>
<rect x="44.5" y="17.7534" width="49" height="20" transform="rotate(30 44.5 17.7534)" fill="url(#paint0_linear_3_359)"/>
<rect x="34" y="35.9399" width="49" height="20" transform="rotate(30 34 35.9399)" fill="url(#paint1_linear_3_359)"/>
<rect x="23.5" y="54.1265" width="49" height="20" transform="rotate(30 23.5 54.1265)" fill="url(#paint2_linear_3_359)"/>
<rect x="13" y="72.3132" width="49" height="6" transform="rotate(30 13 72.3132)" fill="#E9E9E9"/>
<path d="M90.4352 36.1913L111.475 32.75L73.4747 98.5679L52.4352 102.009L90.4352 36.1913Z" fill="#CACACA"/>
<rect x="48" y="11.6914" width="49" height="6" transform="rotate(30 48 11.6914)" fill="#E9E9E9"/>
<path d="M73.4778 10.8125L111.475 32.75L90.4353 36.1912L47.9905 11.7997L73.4778 10.8125Z" fill="#F5F5F5"/>
<rect x="12.683" y="73.8622" width="48" height="3" transform="rotate(30 12.683 73.8622)" fill="#E9E9E9" stroke="#D2D2D2"/>
<rect x="47.683" y="13.2404" width="48" height="3" transform="rotate(30 47.683 13.2404)" fill="#E9E9E9" stroke="#D2D2D2"/>
</g>
<defs>
<filter id="filter0_d_3_359" x="0" y="0.8125" width="125.475" height="115.197" filterUnits="userSpaceOnUse" color-interpolation-filters="sRGB">
<feFlood flood-opacity="0" result="BackgroundImageFix"/>
<feColorMatrix in="SourceAlpha" type="matrix" values="0 0 0 0 0 0 0 0 0 0 0 0 0 0 0 0 0 0 127 0" result="hardAlpha"/>
<feOffset dx="2" dy="2"/>
<feGaussianBlur stdDeviation="6"/>
<feComposite in2="hardAlpha" operator="out"/>
<feColorMatrix type="matrix" values="0 0 0 0 0 0 0 0 0 0 0 0 0 0 0 0 0 0 0.05 0"/>
<feBlend mode="normal" in2="BackgroundImageFix" result="effect1_dropShadow_3_359"/>
<feBlend mode="normal" in="SourceGraphic" in2="effect1_dropShadow_3_359" result="shape"/>
</filter>
<linearGradient id="paint0_linear_3_359" x1="69" y1="17.7534" x2="69" y2="20.7534" gradientUnits="userSpaceOnUse">
<stop stop-color="#FFFAF1"/>
<stop offset="1" stop-color="#FFE5B8"/>
</linearGradient>
<linearGradient id="paint1_linear_3_359" x1="58.5" y1="35.9399" x2="58.5" y2="38.9399" gradientUnits="userSpaceOnUse">
<stop stop-color="#FFFAF1"/>
<stop offset="1" stop-color="#FFE5B8"/>
</linearGradient>
<linearGradient id="paint2_linear_3_359" x1="48" y1="54.1265" x2="48" y2="57.1265" gradientUnits="userSpaceOnUse">
<stop stop-color="#FFFAF1"/>
<stop offset="1" stop-color="#FFE5B8"/>
</linearGradient>
</defs>
</svg>
